# xmcd
#
# Track frame offsets:
#	300
#	17431
#	31552
#	46217
#	58577
#	78214
#	94443
#	111138
#	124230
#	141653
#	162248
#	177551
#	195431
#	213842
#	226120
#
# Disc length: 3180 seconds
#
# Revision: 1
# Processed by: cddbd v1.5.2PL0 Copyright (c) Steve Scherf et al.
# Submitted via: audiograbber 1.83.01
#
DISCID=c20c680f
DTITLE=sunfly - SFKK42
DYEAR=2010
DGENRE=
TTITLE0=Reba McEntire - Consider Me Gone
TTITLE1=George Strait  - Twang
TTITLE2=The McClymonts  - Kick It Up
TTITLE3=Dianna Corcoran - Thank You For Cheating On Me
TTITLE4=Lee Kernaghan  - 1959
TTITLE5=Sunny Cowgirls - Summer
TTITLE6=Amber Lawrence  - Wrecking Ball
TTITLE7=Slim Dusty - Old Time Country Halls
TTITLE8=Kasey Chambers - Hollywood
TTITLE9=Sugarland - Baby Girl
TTITLE10=George Jones - The Grand Tour
TTITLE11=Willie Nelson - Always On My Mind
TTITLE12=Johnny Cash - Sunday Morning Coming Down
TTITLE13=Merle Haggard  - I Think I'll Just Stay Here And Drink
TTITLE14=Loretta Lynn - Out Of My Head And Back In My Bed
EXTD=
EXTT0=
EXTT1=
EXTT2=
EXTT3=
EXTT4=
EXTT5=
EXTT6=
EXTT7=
EXTT8=
EXTT9=
EXTT10=
EXTT11=
EXTT12=
EXTT13=
EXTT14=
PLAYORDER=
